<?xml version="1.0" encoding="UTF-8"?>
<svg width="478px" height="507px" viewBox="0 0 478 507" version="1.1" xmlns="http://www.w3.org/2000/svg" xmlns:xlink="http://www.w3.org/1999/xlink">
    <!-- Generator: Sketch 52.5 (67469) - http://www.bohemiancoding.com/sketch -->
    <title>knife</title>
    <desc>Created with Sketch.</desc>
    <g id="Page-1" stroke="none" stroke-width="1" fill="none" fill-rule="evenodd">
        <g id="knife">
            <path d="M58.707,490.406 C46.122,502.99 25.646,502.988 13.066,490.408 C6.969,484.311 3.612,476.205 3.612,467.583 C3.612,458.961 6.969,450.856 13.063,444.761 L118.001,339.824 L163.643,385.468 L58.707,490.406 Z" id="Path" fill="#000000" fill-rule="nonzero"></path>
            <path d="M186.005,365.252 C184.528,365.347 183.137,365.976 182.091,367.022 L172.243,376.87 L126.6,331.224 L424.667,33.156 C430.031,40.273 434.265,47.126 437.497,53.949 C388.024,97.906 373.62,121.829 373.62,154.051 C373.62,177.771 365.285,183.631 350.158,194.269 C342.653,199.546 334.148,205.528 324.822,214.855 C307.128,232.547 304.512,250.157 306.907,264.095 L203.414,367.588 C193.823,364.836 186.545,365.221 186.005,365.252 Z" id="Path" fill="#000000" fill-rule="nonzero"></path>
            <path d="M225.02,378.864 C221.914,376.326 218.75,374.253 215.631,372.568 L310.872,277.325 C312.678,281.527 314.702,284.993 316.367,287.518 L225.02,378.864 Z" id="Path" fill="#000000" fill-rule="nonzero"></path>
            <path d="M444.875,186.033 C439.666,186.033 435.427,181.794 435.427,176.584 C435.427,168.373 441.526,154.392 444.875,152.989 C448.224,154.391 454.324,168.372 454.324,176.584 C454.324,181.794 450.086,186.033 444.875,186.033 Z" id="Path" fill="#000000" fill-rule="nonzero"></path>
            <path d="M452.249,143.28 C450.059,141.718 447.605,140.787 444.875,140.787 C430.002,140.787 423.265,168.247 423.265,176.585 C423.265,177.836 423.394,179.056 423.599,180.251 C423.137,180.723 325.106,278.78 325.106,278.78 C319.078,268.873 310.289,246.583 333.419,223.455 C342.003,214.872 350.051,209.213 357.152,204.219 C373.147,192.971 385.781,184.087 385.781,154.051 C385.781,122.516 402.728,98.957 463.707,47.342 C475.426,76.861 471.688,110.092 452.249,143.28 Z" id="Path" fill="#000000" fill-rule="nonzero"></path>
            <path d="M3.612,446 C-2.484,452.096 -1.11022302e-15,486 7,493 C19.5767247,505.576725 48.416,512.4275 61,499.8435 L173,376.869 L117,324 L3.612,446 Z" id="Shape" fill="#000000" fill-rule="nonzero"></path>
            <path d="M45.431,466.642 C44.3,467.773 42.731,468.418 41.126,468.418 C39.533,468.418 37.964,467.773 36.833,466.642 C35.702,465.51 35.057,463.941 35.057,462.337 C35.057,460.732 35.702,459.163 36.833,458.032 C37.964,456.9 39.533,456.256 41.126,456.256 C42.731,456.256 44.3,456.899 45.431,458.032 C46.562,459.174 47.207,460.743 47.207,462.337 C47.206,463.941 46.562,465.497 45.431,466.642 Z" id="Path" fill="#FCFCFC" fill-rule="nonzero"></path>
            <path d="M84.569,427.503 C83.438,428.635 81.869,429.279 80.276,429.279 C78.671,429.279 77.102,428.636 75.971,427.503 C74.84,426.361 74.195,424.803 74.195,423.198 C74.195,421.594 74.84,420.025 75.971,418.893 C77.102,417.762 78.671,417.117 80.276,417.117 C81.869,417.117 83.438,417.762 84.569,418.893 C85.7,420.036 86.357,421.605 86.357,423.198 C86.356,424.791 85.7,426.361 84.569,427.503 Z" id="Path" fill="#FCFCFC" fill-rule="nonzero"></path>
            <path d="M123.707,379.754 C124.838,380.885 125.495,382.454 125.495,384.059 C125.495,385.664 124.838,387.221 123.707,388.364 C122.576,389.495 121.007,390.14 119.414,390.14 C117.809,390.14 116.24,389.495 115.109,388.364 C113.978,387.221 113.333,385.664 113.333,384.059 C113.333,382.454 113.978,380.885 115.109,379.754 C116.24,378.623 117.809,377.978 119.414,377.978 C121.007,377.978 122.575,378.624 123.707,379.754 Z" id="Path" fill="#FCFCFC" fill-rule="nonzero"></path>
            <path d="M472,34 C467.928,26.636 449,0 443,0 C439,0 432,6 422,18 C423.628672,20.1166276 426.976758,22.9761428 429.571675,26.1364128 C435.809856,33.7337015 447.474529,49.0691164 450,54 C453.62,50.874 468.044,37.333 472,34 Z" id="Path" fill="#E6E6E6"></path>
            <path d="M420.255842,231.377 C419.550466,231.377 415.74908,233.44752 411.367409,243.01529 C407.63436,251.167682 405.619,260.233474 405.619,264.623826 C405.619,272.415107 412.185136,278.753 420.257,278.753 C428.328864,278.753 434.895,272.415107 434.895,264.623826 C434.895,260.233474 432.87964,251.1688 429.146591,243.01529 C424.761445,233.449756 420.961218,231.377 420.255842,231.377 Z" id="Path" fill="#8B432D"></path>
            <path d="M202,367 C205.118,368.686 221.914,376.325 225.02,378.863 L316.367,287.517 C314.702,284.992 308.807,268.202 307,264 L202,367 Z" id="Path" fill="#E6E6E6"></path>
            <path d="M444.875,152.989 C441.526,154.391 435.427,168.373 435.427,176.584 C435.427,181.793 439.665,186.033 444.875,186.033 C450.085,186.033 454.324,181.794 454.324,176.584 C454.324,168.372 448.225,154.392 444.875,152.989 Z" id="Path" fill="#8B432D"></path>
            <path d="M457,55 C453.768,48.178 428.364,24.119 423,17 L117,324 L172.244,376.869 L182.092,367.021 C183.138,365.975 184.529,365.346 186.006,365.251 C186.546,365.221 193.825,364.834 203.414,367.586 C259.352644,334.610635 298.881311,306.081968 322,282 C338,265.333333 360.666667,236.978167 390,196.9345 C387.604,182.9985 407.528,98.956 457,55 Z" id="Path" fill="#E6E6E6"></path>
            <path d="M385.78,154.05 C385.78,184.086 373.146,192.97 357.151,204.218 C350.049,209.212 342.002,214.871 333.418,223.454 C310.288,246.583 319.078,268.871 325.105,278.779 C325.105,278.779 357.936,245.936 423.598,180.25 C427.199333,176.083333 436.749333,163.759667 452.248,143.279 C475.496,112.558 483.718,63.521 472,34 C411.021,85.616 385.78,122.515 385.78,154.05 Z" id="Path" fill="#8B432D"></path>
            <path d="M419.256,223.215 C402.983,223.215 394.456,254.348 394.456,265.115 C394.456,278.789 405.581,289.915 419.256,289.915 C432.93,289.915 444.056,278.79 444.056,265.115 C444.056,254.348 435.529,223.215 419.256,223.215 Z M419.256,277.753 C412.288,277.753 406.618,272.084 406.618,265.115 C406.618,261.188 408.358,253.08 411.581,245.787 C415.363,237.23 418.646,235.377 419.255,235.377 C419.864,235.377 423.146,237.229 426.929,245.787 C430.152,253.079 431.892,261.188 431.892,265.115 C431.893,272.084 426.223,277.753 419.256,277.753 Z" id="Shape" fill="#8B432D" fill-rule="nonzero"></path>
        </g>
    </g>
</svg>